<?xml version="1.0" encoding="UTF-8" standalone="no"?>
<!-- Created with Inkscape (http://www.inkscape.org/) -->

<svg
   version="1.1"
   id="svg3284"
   width="2449.8018"
   height="2002.948"
   viewBox="0 0 2449.8018 2002.948"
   xmlns="http://www.w3.org/2000/svg"
   xmlns:svg="http://www.w3.org/2000/svg">
  <defs
     id="defs3288">
    <clipPath
       clipPathUnits="userSpaceOnUse"
       id="clipPath3300">
      <path
         d="M 0,6916.536 H 3458.268 V 0 H 0 Z"
         id="path3298" />
    </clipPath>
  </defs>
  <g
     id="g3292"
     transform="matrix(1.3333333,0,0,-1.3333333,-1027.2801,5648.0755)">
    <g
       id="g3294">
      <g
         id="g3296"
         clip-path="url(#clipPath3300)"
         style="fill:#ffffff">
        <g
           id="g3302"
           transform="translate(1699.7793,3727.4788)"
           style="fill:#ffffff">
          <path
             d="M 0,0 C 30.341,25.549 58.284,59.878 76.646,97.405 51.896,105.389 25.549,110.973 0,110.973 Z m -19.165,0.801 c -31.132,24.748 -59.076,59.077 -76.638,96.604 23.95,8.782 50.298,13.568 76.638,13.568 z M 0,497.401 C 30.341,471.852 58.284,438.318 76.646,400.795 51.896,392.01 25.549,386.419 0,386.419 Z m -19.165,0 c -31.132,-25.549 -59.076,-59.884 -76.638,-96.606 23.95,-7.982 50.298,-14.376 76.638,-14.376 z M 0,130.938 v 108.581 h 114.966 c 0,-43.117 -11.174,-86.23 -29.533,-125.351 C 59.085,123.749 27.943,130.143 0,130.938 M 249.899,239.519 H 134.133 c -1.597,-47.902 -11.18,-90.221 -30.341,-133.332 24.748,-11.183 47.107,-25.549 68.666,-43.114 47.102,47.105 75.051,110.979 77.441,176.446 M 158.083,50.3 C 139.717,66.266 117.363,80.638 95.013,90.222 74.253,51.096 48.704,19.165 16.769,-9.58 68.668,-3.192 117.363,16.77 158.083,50.3 M -19.165,130.938 V 239.519 H -134.13 c 0.8,-43.117 10.381,-87.029 28.741,-125.351 27.148,9.581 56.691,15.975 86.224,16.77 m -249.893,108.581 h 114.968 c 2.398,-47.902 12.777,-89.42 31.935,-133.332 -26.342,-11.183 -47.903,-25.549 -69.455,-43.114 -47.105,47.105 -74.259,109.379 -77.448,176.446 M -178.04,50.3 c 19.165,15.168 41.521,31.137 63.872,39.922 C -93.417,51.096 -67.859,19.165 -35.925,-9.58 -87.818,-3.192 -137.32,16.77 -178.04,50.3 M 0,367.264 V 258.68 h 114.966 c 0,43.912 -11.174,85.433 -29.533,126.146 C 58.284,374.448 28.741,368.062 0,367.264 M 249.899,258.68 H 134.133 c -1.597,47.102 -11.978,90.221 -30.341,132.534 24.748,11.18 47.896,26.347 68.666,43.912 49.496,-49.498 75.051,-110.976 77.441,-176.446 m -91.816,189.216 c -19.164,-15.965 -40.72,-31.13 -63.07,-39.919 -20.76,39.124 -46.309,70.26 -78.244,100.601 51.899,-7.19 100.594,-27.149 141.314,-60.682 M -19.165,367.264 V 258.68 H -134.13 c 0.8,43.111 10.381,86.228 28.741,126.146 27.148,-10.378 56.691,-16.764 86.224,-17.562 M -269.058,258.68 h 114.968 c 2.398,47.909 12.777,89.42 31.935,132.534 -26.342,11.18 -47.903,25.552 -69.455,43.912 -47.906,-47.905 -74.259,-109.376 -77.448,-176.446 m 91.018,189.216 c 19.165,-15.965 40.72,-31.13 63.872,-39.919 19.959,38.325 47.104,71.061 78.243,100.601 -51.893,-7.19 -100.594,-27.149 -142.115,-60.682 M -839.112,162.08 h 518.157 c 19.162,-95.01 84.628,-174.055 215.566,-229.143 -14.366,-45.511 -65.467,-87.824 -118.159,-87.824 h -281.035 c -43.117,0 -76.647,36.729 -90.222,65.464 h 285.024 c 17.568,3.195 18.365,16.77 0.804,18.366 h -280.235 c -36.729,0 -69.461,31.934 -88.619,65.468 h 327.336 c 15.972,2.397 15.972,16.772 0,19.166 h -329.739 c -32.729,0 -63.073,38.317 -75.843,64.666 h 361.671 c 18.362,2.395 18.362,19.162 0,19.96 h -368.059 c -28.744,0 -56.685,31.139 -76.647,63.877 m 1658.267,0 H 301.797 C 282.633,67.07 216.37,-11.975 85.433,-67.063 c 15.167,-45.511 66.255,-87.824 118.956,-87.824 h 281.039 c 42.316,0 76.647,36.729 90.218,65.464 H 289.824 c -16.769,3.195 -18.366,16.77 -0.804,18.366 h 281.04 c 35.92,0 69.458,31.934 87.814,65.468 H 331.336 c -16.77,2.397 -16.77,16.772 0,19.166 h 328.941 c 33.526,0 63.871,38.317 75.844,64.666 H 374.45 c -17.568,2.395 -17.568,19.162 0,19.96 h 368.86 c 28.742,0 56.679,31.139 75.845,63.877 m -583.631,-722.556 166.071,339.323 h 109.377 l 67.867,-339.323 H 475.845 l -4.786,39.921 H 362.48 l -17.57,-39.921 z m 154.093,110.979 h 70.265 l -18.368,124.553 z m -369.655,-110.979 37.524,255.49 h -95.808 l 15.971,85.426 H 273.85 l -16.767,-85.426 h -91.016 l -37.527,-255.49 z m -444.712,0 166.073,339.323 h 108.581 l 68.666,-339.323 h -102.199 l -5.587,39.921 H -297.8 l -17.565,-39.921 z m 154.092,110.979 h 70.262 l -18.362,124.553 z m -332.128,-110.979 67.862,339.323 h 110.174 l -67.859,-339.323 z"
             style="fill:#ffffff;fill-opacity:1;fill-rule:evenodd;stroke:none"
             id="path3304" />
        </g>
        <g
           id="g3306"
           transform="translate(850.8901,2990.6418)"
           style="fill:#ffffff">
          <path
             d="M 0,0 -13.434,34.101 -27.04,0 Z M -29.278,73.712 H 2.928 L 54.251,-47.707 H 18.428 l -8.611,21.7 h -46.673 l -8.612,-21.7 H -80.43 Z"
             style="fill:#ffffff;fill-opacity:1;fill-rule:nonzero;stroke:none"
             id="path3308" />
        </g>
        <g
           id="g3310"
           transform="translate(905.1455,3002.8694)"
           style="fill:#ffffff">
          <path
             d="m 0,0 v 0.345 c 0,35.134 26.867,62.69 63.379,62.69 24.456,0 40.645,-10.334 51.151,-24.973 L 89.385,18.601 C 82.496,27.039 74.746,32.723 63.035,32.723 46.157,32.723 34.273,18.256 34.273,0.689 V 0.345 c 0,-18.084 11.884,-32.206 28.762,-32.206 12.572,0 19.806,5.855 27.212,14.638 l 25.145,-17.911 C 103.852,-50.807 88.696,-62.346 62.173,-62.346 27.729,-62.346 0,-35.995 0,0"
             style="fill:#ffffff;fill-opacity:1;fill-rule:nonzero;stroke:none"
             id="path3312" />
        </g>
        <g
           id="g3314"
           transform="translate(1027.6021,3002.8694)"
           style="fill:#ffffff">
          <path
             d="m 0,0 v 0.345 c 0,35.134 26.867,62.69 63.379,62.69 24.456,0 40.645,-10.334 51.151,-24.973 L 89.385,18.601 C 82.496,27.039 74.746,32.723 63.035,32.723 46.157,32.723 34.273,18.256 34.273,0.689 V 0.345 c 0,-18.084 11.884,-32.206 28.762,-32.206 12.572,0 19.806,5.855 27.212,14.638 l 25.145,-17.911 C 103.852,-50.807 88.696,-62.346 62.174,-62.346 27.729,-62.346 0,-35.995 0,0"
             style="fill:#ffffff;fill-opacity:1;fill-rule:nonzero;stroke:none"
             id="path3316" />
        </g>
        <g
           id="g3318"
           transform="translate(1213.0918,3005.6252)"
           style="fill:#ffffff">
          <path
             d="m 0,0 c 11.194,0 17.911,5.511 17.911,14.295 v 0.344 c 0,9.644 -7.061,14.467 -18.083,14.467 H -22.217 V 0 Z M -55.629,57.868 H 1.377 c 18.601,0 31.174,-4.823 39.268,-12.917 7.062,-7.061 10.678,-16.534 10.678,-28.073 v -0.345 c 0,-18.599 -9.644,-30.828 -24.801,-37.2 L 55.284,-62.69 H 16.878 L -7.406,-26.179 H -22.217 V -62.69 h -33.412 z"
             style="fill:#ffffff;fill-opacity:1;fill-rule:nonzero;stroke:none"
             id="path3320" />
        </g>
        <g
           id="g3322"
           transform="translate(1281.2964,3063.4934)"
           style="fill:#ffffff">
          <path
             d="M 0,0 H 96.963 V -28.245 H 33.067 v -18.429 h 57.868 v -26.35 H 33.067 v -19.118 h 64.757 v -28.417 H 0 Z"
             style="fill:#ffffff;fill-opacity:1;fill-rule:nonzero;stroke:none"
             id="path3324" />
        </g>
        <g
           id="g3326"
           transform="translate(1429.7588,3034.0422)"
           style="fill:#ffffff">
          <path
             d="m 0,0 v -61.484 h 13.606 c 20.15,0 33.412,11.022 33.412,30.483 v 0.345 C 47.018,-11.194 33.756,0 13.606,0 Z m -33.412,29.451 h 46.673 c 42.885,0 67.858,-24.629 67.858,-59.591 v -0.343 c 0,-34.962 -25.318,-60.624 -68.547,-60.624 h -45.984 z"
             style="fill:#ffffff;fill-opacity:1;fill-rule:nonzero;stroke:none"
             id="path3328" />
        </g>
        <path
           d="m 1529.136,3063.493 h 33.412 v -120.559 h -33.412 z"
           style="fill:#ffffff;fill-opacity:1;fill-rule:nonzero;stroke:none"
           id="path3330" />
        <g
           id="g3332"
           transform="translate(1614.0444,3034.2141)"
           style="fill:#ffffff">
          <path
             d="M 0,0 H -35.995 V 29.279 H 69.58 V 0 H 33.412 V -91.279 H 0 Z"
             style="fill:#ffffff;fill-opacity:1;fill-rule:nonzero;stroke:none"
             id="path3334" />
        </g>
        <g
           id="g3336"
           transform="translate(1698.2651,3063.4934)"
           style="fill:#ffffff">
          <path
             d="M 0,0 H 96.963 V -28.245 H 33.068 v -18.429 h 57.868 v -26.35 H 33.068 v -19.118 h 64.757 v -28.417 H 0 Z"
             style="fill:#ffffff;fill-opacity:1;fill-rule:nonzero;stroke:none"
             id="path3338" />
        </g>
        <g
           id="g3340"
           transform="translate(1846.7275,3034.0422)"
           style="fill:#ffffff">
          <path
             d="m 0,0 v -61.484 h 13.605 c 20.151,0 33.413,11.022 33.413,30.483 v 0.345 C 47.018,-11.194 33.756,0 13.605,0 Z m -33.412,29.451 h 46.674 c 42.884,0 67.856,-24.629 67.856,-59.591 v -0.343 c 0,-34.962 -25.317,-60.624 -68.546,-60.624 h -45.984 z"
             style="fill:#ffffff;fill-opacity:1;fill-rule:nonzero;stroke:none"
             id="path3342" />
        </g>
        <g
           id="g3344"
           transform="translate(2067.8682,2990.6418)"
           style="fill:#ffffff">
          <path
             d="M 0,0 -13.434,34.101 -27.039,0 Z M -29.278,73.712 H 2.928 L 54.252,-47.707 H 18.429 l -8.612,21.7 h -46.673 l -8.612,-21.7 h -34.961 z"
             style="fill:#ffffff;fill-opacity:1;fill-rule:nonzero;stroke:none"
             id="path3346" />
        </g>
        <g
           id="g3348"
           transform="translate(2122.124,3002.8694)"
           style="fill:#ffffff">
          <path
             d="m 0,0 v 0.345 c 0,35.134 27.557,62.69 64.757,62.69 21.356,0 35.995,-6.373 48.912,-17.395 L 94.035,21.873 C 85.252,29.278 77.157,33.239 64.929,33.239 47.707,33.239 34.101,18.772 34.101,0.345 V 0 c 0,-19.634 13.606,-33.584 32.722,-33.584 8.268,0 14.468,1.723 19.29,4.994 v 14.64 H 62.518 v 24.456 h 55.285 V -43.573 C 104.886,-54.424 87.663,-62.346 65.446,-62.346 27.729,-62.346 0,-36.684 0,0"
             style="fill:#ffffff;fill-opacity:1;fill-rule:nonzero;stroke:none"
             id="path3350" />
        </g>
        <g
           id="g3352"
           transform="translate(2258.5313,3063.4934)"
           style="fill:#ffffff">
          <path
             d="M 0,0 H 96.964 V -28.245 H 33.067 v -18.429 h 57.869 v -26.35 H 33.067 v -19.118 h 64.757 v -28.417 H 0 Z"
             style="fill:#ffffff;fill-opacity:1;fill-rule:nonzero;stroke:none"
             id="path3354" />
        </g>
        <g
           id="g3356"
           transform="translate(2373.582,3063.4934)"
           style="fill:#ffffff">
          <path
             d="M 0,0 H 31.173 L 80.774,-63.724 V 0 h 33.068 V -120.559 H 84.735 l -51.668,66.135 v -66.135 H 0 Z"
             style="fill:#ffffff;fill-opacity:1;fill-rule:nonzero;stroke:none"
             id="path3358" />
        </g>
        <g
           id="g3360"
           transform="translate(2538.2324,3034.2141)"
           style="fill:#ffffff">
          <path
             d="M 0,0 H -35.995 V 29.279 H 69.579 V 0 H 33.411 V -91.279 H 0 Z"
             style="fill:#ffffff;fill-opacity:1;fill-rule:nonzero;stroke:none"
             id="path3362" />
        </g>
        <g
           id="g3364"
           transform="translate(1353.54,2796.1917)"
           style="fill:#ffffff">
          <path
             d="m 0,0 v 0.345 c 0,19.289 -9.128,33.239 -22.389,33.239 -13.262,0 -22.045,-13.605 -22.045,-32.895 V 0.345 c 0,-19.462 9.128,-33.068 22.389,-33.068 C -8.611,-32.723 0,-19.117 0,0 m -78.019,0 v 0.345 c 0,34.1 21.701,62.69 55.974,62.69 34.273,0 55.629,-28.245 55.629,-62.346 V 0.345 c 0,-34.101 -21.528,-62.691 -55.973,-62.691 -34.273,0 -55.63,28.245 -55.63,62.346"
             style="fill:#ffffff;fill-opacity:1;fill-rule:nonzero;stroke:none"
             id="path3366" />
        </g>
        <g
           id="g3368"
           transform="translate(1393.6729,2755.2024)"
           style="fill:#ffffff">
          <path
             d="M 0,0 21.184,21.011 C 29.967,12.228 38.751,7.233 49.945,7.233 c 9.645,0 15.328,4.823 15.328,12.228 v 0.345 c 0,7.75 -6.716,12.4 -19.633,12.4 H 31.517 l -4.65,17.395 27.556,24.972 H 8.439 v 27.04 H 95.413 V 77.846 L 66.651,53.045 C 83.874,49.256 97.824,39.784 97.824,19.116 V 18.772 C 97.824,-5.512 78.019,-21.356 51.323,-21.356 27.9,-21.356 11.884,-13.09 0,0"
             style="fill:#ffffff;fill-opacity:1;fill-rule:nonzero;stroke:none"
             id="path3370" />
        </g>
        <g
           id="g3372"
           transform="translate(1503.04,2761.4016)"
           style="fill:#ffffff">
          <path
             d="m 0,0 45.123,34.445 c 11.195,8.784 15.672,14.295 15.672,21.701 0,7.75 -5.338,12.4 -13.605,12.4 -8.095,0 -14.467,-4.822 -23.94,-15.672 L 0.689,71.646 C 13.606,88.18 26.522,97.48 49.773,97.48 c 26.179,0 44.435,-15.672 44.435,-38.406 v -0.345 c 0,-19.289 -9.99,-29.278 -27.901,-42.195 L 45.64,2.067 H 95.413 V -25.145 H 0 Z"
             style="fill:#ffffff;fill-opacity:1;fill-rule:nonzero;stroke:none"
             id="path3374" />
        </g>
        <g
           id="g3376"
           transform="translate(1632.7295,2826.676)"
           style="fill:#ffffff">
          <path
             d="M 0,0 -20.323,-4.822 -26.695,21.012 8.611,31 H 32.895 V -90.419 H 0 Z"
             style="fill:#ffffff;fill-opacity:1;fill-rule:nonzero;stroke:none"
             id="path3378" />
        </g>
        <g
           id="g3380"
           transform="translate(1751.0518,2816.5139)"
           style="fill:#ffffff">
          <path
             d="m 0,0 v 0.345 c 0,9.472 -6.717,16.534 -17.223,16.534 -10.506,0 -16.878,-6.89 -16.878,-16.361 V 0.173 c 0,-9.128 6.717,-15.845 17.223,-15.845 C -6.372,-15.672 0,-8.783 0,0 m -0.345,-29.795 c -7.405,-6.889 -16.016,-9.816 -25.661,-9.816 -23.423,0 -40.473,14.638 -40.473,38.234 v 0.344 c 0,26.695 20.494,43.746 48.051,43.746 17.395,0 27.901,-4.822 37.029,-13.951 C 27.384,19.979 33.067,6.2 33.067,-16.017 v -0.344 c 0,-39.268 -19.633,-66.307 -55.629,-66.307 -18.084,0 -31.001,5.511 -42.195,14.295 l 15.673,23.078 c 8.438,-6.717 16.189,-9.644 25.834,-9.644 17.566,0 22.045,15.5 22.905,25.144"
             style="fill:#ffffff;fill-opacity:1;fill-rule:nonzero;stroke:none"
             id="path3382" />
        </g>
        <g
           id="g3384"
           transform="translate(1865.2412,2775.3528)"
           style="fill:#ffffff">
          <path
             d="M 0,0 V 0.344 C 0,9.128 -6.717,15.845 -17.223,15.845 -27.729,15.845 -33.929,9.3 -33.929,0.517 V 0.172 c 0,-8.783 6.545,-15.673 17.051,-15.673 C -6.372,-15.501 0,-8.784 0,0 m -52.356,-27.729 c -8.957,8.956 -14.812,22.562 -14.812,45.124 v 0.344 c 0,37.545 18.256,66.135 55.974,66.135 17.049,0 28.417,-4.478 40.128,-13.262 L 13.262,47.189 c -7.407,5.512 -14.295,9.128 -23.94,9.128 -17.395,0 -21.873,-16.189 -22.734,-25.834 7.75,6.029 15.673,9.301 26.006,9.301 21.184,0 39.784,-13.433 39.784,-37.546 V 1.895 c 0,-26.869 -21.527,-43.402 -47.878,-43.402 -17.223,0 -28.073,4.994 -36.856,13.778"
             style="fill:#ffffff;fill-opacity:1;fill-rule:nonzero;stroke:none"
             id="path3386" />
        </g>
        <g
           id="g3388"
           transform="translate(1965.9971,2828.7424)"
           style="fill:#ffffff">
          <path
             d="M 0,0 H -55.801 V 28.073 H 37.028 V 2.928 l -53.217,-95.413 h -36.857 z"
             style="fill:#ffffff;fill-opacity:1;fill-rule:nonzero;stroke:none"
             id="path3390" />
        </g>
        <g
           id="g3392"
           transform="translate(2010.9521,2761.4016)"
           style="fill:#ffffff">
          <path
             d="m 0,0 45.123,34.445 c 11.194,8.784 15.673,14.295 15.673,21.701 0,7.75 -5.339,12.4 -13.607,12.4 -8.094,0 -14.466,-4.822 -23.939,-15.672 L 0.688,71.646 C 13.605,88.18 26.522,97.48 49.773,97.48 c 26.178,0 44.434,-15.672 44.434,-38.406 v -0.345 c 0,-19.289 -9.988,-29.278 -27.9,-42.195 L 45.64,2.067 H 95.413 V -25.145 H 0 Z"
             style="fill:#ffffff;fill-opacity:1;fill-rule:nonzero;stroke:none"
             id="path3394" />
        </g>
        <g
           id="g3396"
           transform="translate(1234.5244,2796.1467)"
           style="fill:#ffffff">
          <path
             d="m 0,0 c 0,-10.199 -8.268,-18.467 -18.466,-18.467 -10.199,0 -18.466,8.268 -18.466,18.467 0,10.198 8.267,18.466 18.466,18.466 C -8.268,18.466 0,10.198 0,0"
             style="fill:#ffffff;fill-opacity:1;fill-rule:evenodd;stroke:none"
             id="path3398" />
        </g>
        <g
           id="g3400"
           transform="translate(2183.4521,2792.2102)"
           style="fill:#ffffff">
          <path
             d="m 0,0 c 0,-10.198 -8.268,-18.466 -18.466,-18.466 -10.199,0 -18.467,8.268 -18.467,18.466 0,10.198 8.268,18.466 18.467,18.466 C -8.268,18.466 0,10.198 0,0"
             style="fill:#ffffff;fill-opacity:1;fill-rule:evenodd;stroke:none"
             id="path3402" />
        </g>
      </g>
    </g>
  </g>
</svg>
