<?xml version="1.0" encoding="UTF-8" standalone="no"?>
<!-- Generator: Adobe Illustrator 26.3.1, SVG Export Plug-In . SVG Version: 6.00 Build 0)  -->

<svg
   version="1.1"
   id="Calque_1"
   x="0px"
   y="0px"
   viewBox="0 0 959.65998 553.09826"
   xml:space="preserve"
   width="959.65881"
   height="553.0976"
   xmlns="http://www.w3.org/2000/svg"
   xmlns:svg="http://www.w3.org/2000/svg"><defs
   id="defs150" />
<style
   type="text/css"
   id="style77">
	.st0{fill:#BA1818;}
	.st1{fill:#17304F;}
	.st2{fill-rule:evenodd;clip-rule:evenodd;fill:#17304F;}
	.st3{fill-rule:evenodd;clip-rule:evenodd;fill:#BA1818;}
</style>

<g
   id="g598"
   transform="translate(-396.59,-173.58172)"><g
     id="g127">
	<path
   id="path133"
   class="st1"
   d="m 1340.6699,599.73047 c -8,0 -14.5,6.50001 -14.5,14.5 0,7.99999 6.51,14.5 14.5,14.5 7.99,0 14.5,-6.50001 14.5,-14.5 0,-7.99999 -6.5,-14.5 -14.5,-14.5 z m 0,2.41992 c 6.66,0 12.0801,5.42009 12.0801,12.08008 0,6.65999 -5.4201,12.08008 -12.0801,12.08008 -6.66,0 -12.0801,-5.42009 -12.0801,-12.08008 0,-6.65999 5.4201,-12.08008 12.0801,-12.08008 z m -4.8496,5.34961 v 13.91016 h 2.3496 v -4.67969 h 3.0801 l 3.3203,4.67969 h 2.9902 l -3.6406,-5.05078 c 2,-0.6 3,-2.03985 3,-4.33985 0,-1.58 -0.4591,-2.71922 -1.3691,-3.44922 -0.92,-0.71 -2.4406,-1.07031 -4.5606,-1.07031 z m 2.3496,2.13086 h 2.9805 c 1.26,0 2.1389,0.16977 2.6289,0.50976 0.49,0.34 0.7402,0.95915 0.7402,1.86915 0,0.90999 -0.2387,1.57046 -0.7187,1.98046 -0.48,0.41 -1.3812,0.61938 -2.7012,0.60938 h -2.9297 z"
   style="fill:#ffffff" /><path
   class="st2"
   d="m 1294.74,640.2 -28.46,66.25 c -1.79,4.02 -2.68,7.12 -2.68,9.29 0,1.72 0.77,3.19 2.3,4.4 1.53,1.28 4.89,2.04 10.06,2.3 v 2.97 h -33.83 v -2.97 c 4.54,-0.77 7.44,-1.79 8.72,-3.07 2.68,-2.55 5.69,-7.69 9.01,-15.42 l 37.75,-88.43 h 2.78 l 37.37,89.39 c 3,7.03 5.75,11.69 8.24,13.99 2.36,2.04 5.78,3.23 10.25,3.55 v 2.97 h -42.35 v -2.97 c 2.11,-0.06 3.86,-0.29 5.27,-0.67 1.41,-0.38 2.52,-0.86 3.35,-1.44 0.83,-0.57 1.42,-1.23 1.77,-1.96 0.35,-0.73 0.53,-1.55 0.53,-2.44 0,-2.36 -1.05,-6.03 -3.16,-11.01 z"
   id="path109"
   style="fill:#ffffff" />
	
	
	<path
   class="st2"
   d="m 1228.14,721.16 v 2.97 h -46.06 v -2.97 h 3.83 c 4.47,0 7.7,-1.28 9.68,-3.83 1.28,-1.79 1.92,-5.84 1.92,-12.16 v -69.43 c 0,-2.49 -0.05,-4.53 -0.14,-6.13 -0.1,-1.6 -0.3,-2.9 -0.62,-3.92 -0.32,-1.02 -0.77,-1.84 -1.34,-2.44 -0.58,-0.61 -1.31,-1.17 -2.2,-1.68 -2.36,-1.28 -4.79,-1.91 -7.28,-1.91 h -3.83 v -2.87 h 46.06 v 2.87 h -3.93 c -4.34,0 -7.54,1.31 -9.58,3.92 -1.34,1.66 -2.02,5.71 -2.02,12.16 v 69.43 c 0,2.55 0.05,4.63 0.15,6.22 0.1,1.6 0.3,2.89 0.62,3.88 0.32,0.99 0.77,1.79 1.34,2.39 0.57,0.61 1.34,1.17 2.3,1.68 2.17,1.21 4.57,1.82 7.19,1.82 z"
   id="path115"
   style="fill:#ffffff" /><path
   class="st2"
   d="m 1168.85,614.23 v 27.72 h -5.73 c -0.89,-1.95 -1.84,-3.75 -2.85,-5.4 -2.39,-3.93 -5.13,-7.12 -8.19,-9.58 -3.07,-2.46 -6.45,-4.25 -10.16,-5.36 -3.71,-1.12 -7.73,-1.68 -12.08,-1.68 -5.3,0 -10.22,1.07 -14.76,3.21 -4.54,2.14 -8.46,5.36 -11.79,9.67 -3.32,4.31 -5.92,9.75 -7.81,16.33 -1.88,6.57 -2.83,14.27 -2.83,23.08 0,7.54 0.93,14.24 2.78,20.11 1.85,5.87 4.52,10.84 8,14.89 3.48,4.05 7.7,7.13 12.65,9.24 4.95,2.11 10.52,3.16 16.72,3.16 3.51,0 6.77,-0.32 9.78,-0.96 3,-0.64 5.91,-1.81 8.72,-3.5 2.81,-1.69 5.62,-3.98 8.43,-6.85 2.81,-2.87 5.84,-6.55 9.1,-11.02 l 2.49,1.63 c -5.37,9.58 -11.64,16.61 -18.83,21.07 -7.19,4.46 -15.73,6.69 -25.63,6.69 -7.6,0 -14.6,-1.34 -20.99,-4.03 -6.39,-2.68 -11.91,-6.45 -16.56,-11.31 -4.65,-4.86 -8.27,-10.61 -10.85,-17.26 -2.58,-6.65 -3.87,-13.96 -3.87,-21.95 0,-8.11 1.39,-15.69 4.16,-22.72 2.77,-7.03 6.59,-13.15 11.47,-18.36 4.88,-5.21 10.65,-9.32 17.33,-12.32 6.68,-3 13.91,-4.51 21.7,-4.51 3.83,0 7.68,0.46 11.55,1.39 3.86,0.93 7.68,2.35 11.45,4.26 1.09,0.57 2.01,1.02 2.78,1.34 0.77,0.32 1.41,0.48 1.92,0.48 1.73,0 3.15,-0.7 4.27,-2.11 1.12,-1.41 1.93,-3.19 2.44,-5.37 h 5.19 z"
   id="path111"
   style="fill:#ffffff" />
	<path
   class="st2"
   d="m 958.61,615.9 h 29.13 l 65.74,80.56 v -61.98 c 0,-6.52 -0.77,-10.63 -2.3,-12.36 -2.04,-2.24 -5.11,-3.35 -9.2,-3.35 h -3.74 v -2.87 h 22.1 v 18.59 32.83 57.69 h -2.77 l -70.82,-86.5 v 66.21 c 0,6.58 0.73,10.7 2.21,12.36 1.98,2.17 5.05,3.26 9.2,3.26 h 3.83 v 2.97 h -37.44 v -2.97 h 3.74 c 4.54,0 7.76,-1.37 9.68,-4.12 1.15,-1.6 1.72,-5.43 1.72,-11.5 v -74.73 c -1.6,-1.92 -2.94,-3.43 -4.03,-4.55 -1.08,-1.12 -2.11,-2.03 -3.07,-2.73 -0.96,-0.7 -1.98,-1.28 -3.07,-1.72 -1.09,-0.45 -2.43,-0.93 -4.02,-1.44 -1.66,-0.51 -3.96,-0.77 -6.9,-0.77 v -2.88 z"
   id="path117"
   style="fill:#ffffff" /><path
   class="st2"
   d="m 893.73,622.67 v 42.39 h 10.76 12.82 34.02 v 5.69 H 917.3 904.48 893.72 v 35.43 c 0,4.79 0.19,7.69 0.57,8.71 0.19,0.51 0.46,0.98 0.82,1.39 0.35,0.42 0.83,0.77 1.44,1.05 0.61,0.29 1.39,0.51 2.35,0.67 0.96,0.16 2.2,0.24 3.74,0.24 h 48.68 v 5.89 h -88.23 v -2.97 h 3.74 c 1.02,0 2.09,-0.11 3.21,-0.34 1.12,-0.22 2.16,-0.56 3.12,-1.01 0.96,-0.45 1.82,-1.02 2.59,-1.72 0.77,-0.7 1.34,-1.53 1.72,-2.49 0.64,-1.66 0.96,-5.14 0.96,-10.44 v -69.71 c 0,-3.38 -0.16,-6.15 -0.48,-8.28 -0.32,-2.14 -0.83,-3.59 -1.53,-4.36 -1.92,-2.11 -5.11,-3.16 -9.58,-3.16 h -3.74 v -2.87 h 88.23 v 6.05 c -1.63,-0.11 -26.04,-0.17 -28.07,-0.17 h -29.53 z"
   id="path113"
   style="fill:#ffffff" />
	<path
   class="st2"
   d="m 777.27,666.89 c 1.15,-0.24 11.3,-0.52 12.36,-0.85 3.87,-1.21 7.1,-2.88 9.7,-4.99 2.59,-2.11 4.53,-4.6 5.81,-7.48 1.28,-2.88 1.92,-5.98 1.92,-9.3 0,-3.32 -0.56,-6.38 -1.68,-9.15 -1.12,-2.78 -2.69,-5.18 -4.7,-7.19 -2.02,-2.02 -4.43,-3.58 -7.25,-4.7 -2.17,-0.86 -4.54,-1.39 -7.09,-1.59 -0.75,-0.06 -1.53,-0.09 -2.31,-0.09 -0.76,0 -1.58,0.03 -2.45,0.09 l -40.57,-3.1 v -2.87 h 39.12 c 5.82,0 10.76,0.18 14.82,0.53 4.06,0.35 7.58,0.98 10.55,1.87 2.97,0.89 5.53,2.09 7.67,3.59 2.14,1.5 4.17,3.4 6.09,5.7 3.77,4.53 5.66,9.84 5.66,15.9 0,6.64 -2.16,12.39 -6.47,17.24 -4.32,4.85 -10.99,8.27 -20,10.25 l 24.39,33.07 c 2.55,3.64 4.87,6.59 6.95,8.86 2.08,2.26 4.12,4.05 6.13,5.36 2.01,1.31 4.15,2.26 6.42,2.87 2.27,0.61 4.9,1.07 7.9,1.39 v 2.97 h -28.75 l -35.16,-47.54 z"
   id="path119"
   style="fill:#ffffff" />
	
	<path
   class="st2"
   d="m 706.21,615.51 h 22.69 v 2.87 h -4.02 c -4.22,0 -7.48,1.79 -9.78,5.36 -1.08,1.66 -1.63,5.46 -1.63,11.4 v 43.59 c 0,4.53 -0.16,8.57 -0.48,12.12 -0.32,3.55 -0.88,6.75 -1.68,9.63 -0.8,2.87 -1.85,5.44 -3.16,7.71 -1.31,2.27 -2.96,4.39 -4.94,6.37 -2.24,2.24 -4.6,4.06 -7.1,5.46 -2.49,1.41 -5.07,2.51 -7.72,3.31 -2.65,0.8 -5.35,1.34 -8.1,1.63 -2.75,0.29 -5.5,0.43 -8.25,0.43 -6.97,0 -12.86,-0.72 -17.69,-2.16 -4.83,-1.44 -8.81,-3.39 -11.94,-5.84 -3.13,-2.46 -5.55,-5.32 -7.24,-8.57 -1.69,-3.26 -2.94,-6.71 -3.74,-10.35 -0.8,-3.64 -1.26,-7.35 -1.39,-11.12 -0.13,-3.77 -0.19,-7.41 -0.19,-10.92 v -41.97 c 0,-3.39 -0.24,-6.13 -0.72,-8.24 -0.48,-2.11 -1.2,-3.74 -2.16,-4.89 -0.96,-1.15 -2.16,-1.93 -3.59,-2.35 -1.44,-0.42 -3.15,-0.62 -5.13,-0.62 h -4.03 v -2.87 h 30.93 v 18.96 33.58 13.24 c 0,4.4 0.27,8.81 0.81,13.21 0.54,4.4 1.75,8.39 3.63,11.97 1.88,3.57 4.67,6.48 8.37,8.71 3.7,2.23 8.7,3.35 15.02,3.35 5.04,0 9.76,-0.81 14.16,-2.44 4.4,-1.63 8.04,-3.88 10.91,-6.75 1.98,-1.98 3.51,-4.25 4.59,-6.8 1.09,-2.55 1.9,-5.22 2.44,-7.99 0.54,-2.78 0.86,-5.58 0.96,-8.43 0.1,-2.84 0.15,-5.57 0.15,-8.19 v -9.89 -33.58 -18.93 z"
   id="path123"
   style="fill:#ffffff" />
	<path
   id="rect125"
   class="st3"
   style="clip-rule:evenodd;fill:#ba1818;fill-rule:evenodd"
   d="m 508.07001,707.75 h 96.97 v 14.92 h -96.97 z" /><path
   class="st1"
   d="m 556.64,692.99 c -20.94,0 -37.98,-17.04 -37.98,-37.98 0,-20.94 17.04,-37.98 37.98,-37.98 20.94,0 37.98,17.04 37.98,37.98 0,20.94 -17.04,37.98 -37.98,37.98 z m 0,-64.49 c -14.62,0 -26.51,11.89 -26.51,26.51 0,14.62 11.89,26.51 26.51,26.51 14.62,0 26.51,-11.89 26.51,-26.51 0,-14.62 -11.89,-26.51 -26.51,-26.51 z"
   id="path129"
   style="fill:#ffffff" /><path
   class="st2"
   d="m 501.47,616.78 v 6.67 h -29.36 -15.14 v 61.5 20.59 c 0,6.64 0.7,10.76 2.11,12.35 1.98,2.17 5.08,3.26 9.29,3.26 h 3.74 v 2.97 h -45.68 v -2.97 h 3.83 c 4.54,0 7.76,-1.37 9.68,-4.12 1.15,-1.6 1.73,-5.43 1.73,-11.49 v -20.59 -61.5 h -12.94 -32.14 v -6.67 z"
   id="path121"
   style="fill:#ffffff" />
</g><g
     id="g277"
     style="display:inline"><path
       id="path268"
       class="st0"
       d="m 469.89062,365.33008 c -7.88999,0 -14.30078,6.42079 -14.30078,14.30078 0,7.88999 6.42079,14.29883 14.30078,14.29883 7.88,0 14.29883,-6.40884 14.29883,-14.29883 0,-7.88999 -6.41883,-14.30078 -14.29883,-14.30078 z m 0,2.38086 c 6.57,0 11.91993,5.34993 11.91993,11.91992 0,6.56999 -5.34993,11.91992 -11.91993,11.91992 -6.56999,0 -11.91992,-5.34993 -11.91992,-11.91992 0,-6.56999 5.34993,-11.91992 11.91992,-11.91992 z M 465.09961,373 v 13.7207 h 2.32031 v -4.61132 h 3.04102 l 3.27929,4.61132 h 2.93946 l -3.58985,-4.99023 c 1.97,-0.59 2.96094,-2.02125 2.96094,-4.28125 0,-1.56 -0.45133,-2.68867 -1.36133,-3.38867 -0.9,-0.71 -2.40023,-1.06055 -4.49023,-1.06055 z m 2.32031,2.09961 h 2.93946 c 1.23999,0 2.10984,0.17 2.58984,0.5 0.49,0.34 0.73047,0.94961 0.73047,1.84961 0,0.89 -0.23899,1.54117 -0.70899,1.95117 -0.47,0.4 -1.36015,0.59961 -2.66015,0.59961 h -2.89063 z" /><path
       class="st0"
       d="m 626.43,190.55 c 0,0 229.74,168.15 434.92,87.54 24.84,-10.03 180.1,-99.01 180.7,-99.37 19.97,-11.61 45.86,-1.76 52.73,11.83 1.64,3.43 7.28,22.15 -11.78,38.28 0,0 -331.53,245.25 -631.54,256.15 0,0 -145.74,7.36 -195.79,-82.44 0,0 91.48,45.32 194.85,42.62 76.85,-0.82 221.03,-50.72 236.85,-85.31 0,0 2.94,-13.62 -11.04,-16.56 0,0 -184.39,-51.16 -249.9,-152.74 z"
       id="path79" /><path
       class="st0"
       d="m 1304.81,213.49 c -1.14,-2.25 -2.84,-4.38 -4.91,-6.35 1.9,6.29 3.84,22.11 -12.6,36.03 0,0 -331.53,245.25 -631.54,256.15 0,0 -131.89,6.65 -187.83,-70.01 52,85.76 193.56,78.61 193.56,78.61 300.02,-10.9 631.54,-256.15 631.54,-256.15 19.07,-16.14 13.42,-34.86 11.78,-38.28 z"
       id="path81" /></g></g>





</svg>
