<?xml version="1.0" encoding="UTF-8" standalone="no"?>
<!-- Generator: Adobe Illustrator 26.3.1, SVG Export Plug-In . SVG Version: 6.00 Build 0)  -->

<svg
   version="1.1"
   id="Calque_1"
   x="0px"
   y="0px"
   viewBox="0 0 851.28045 334.48432"
   xml:space="preserve"
   width="851.27942"
   height="334.48392"
   xmlns="http://www.w3.org/2000/svg"
   xmlns:svg="http://www.w3.org/2000/svg"><defs
   id="defs150" />
<style
   type="text/css"
   id="style77">
	.st0{fill:#BA1818;}
	.st1{fill:#17304F;}
	.st2{fill-rule:evenodd;clip-rule:evenodd;fill:#17304F;}
	.st3{fill-rule:evenodd;clip-rule:evenodd;fill:#BA1818;}
</style>

<g
   id="g598"
   transform="translate(-455.58984,-173.58172)"><g
     id="g277"
     style="display:inline"><path
       id="path268"
       class="st0"
       d="m 469.89062,365.33008 c -7.88999,0 -14.30078,6.42079 -14.30078,14.30078 0,7.88999 6.42079,14.29883 14.30078,14.29883 7.88,0 14.29883,-6.40884 14.29883,-14.29883 0,-7.88999 -6.41883,-14.30078 -14.29883,-14.30078 z m 0,2.38086 c 6.57,0 11.91993,5.34993 11.91993,11.91992 0,6.56999 -5.34993,11.91992 -11.91993,11.91992 -6.56999,0 -11.91992,-5.34993 -11.91992,-11.91992 0,-6.56999 5.34993,-11.91992 11.91992,-11.91992 z M 465.09961,373 v 13.7207 h 2.32031 v -4.61132 h 3.04102 l 3.27929,4.61132 h 2.93946 l -3.58985,-4.99023 c 1.97,-0.59 2.96094,-2.02125 2.96094,-4.28125 0,-1.56 -0.45133,-2.68867 -1.36133,-3.38867 -0.9,-0.71 -2.40023,-1.06055 -4.49023,-1.06055 z m 2.32031,2.09961 h 2.93946 c 1.23999,0 2.10984,0.17 2.58984,0.5 0.49,0.34 0.73047,0.94961 0.73047,1.84961 0,0.89 -0.23899,1.54117 -0.70899,1.95117 -0.47,0.4 -1.36015,0.59961 -2.66015,0.59961 h -2.89063 z" /><path
       class="st0"
       d="m 626.43,190.55 c 0,0 229.74,168.15 434.92,87.54 24.84,-10.03 180.1,-99.01 180.7,-99.37 19.97,-11.61 45.86,-1.76 52.73,11.83 1.64,3.43 7.28,22.15 -11.78,38.28 0,0 -331.53,245.25 -631.54,256.15 0,0 -145.74,7.36 -195.79,-82.44 0,0 91.48,45.32 194.85,42.62 76.85,-0.82 221.03,-50.72 236.85,-85.31 0,0 2.94,-13.62 -11.04,-16.56 0,0 -184.39,-51.16 -249.9,-152.74 z"
       id="path79" /><path
       class="st0"
       d="m 1304.81,213.49 c -1.14,-2.25 -2.84,-4.38 -4.91,-6.35 1.9,6.29 3.84,22.11 -12.6,36.03 0,0 -331.53,245.25 -631.54,256.15 0,0 -131.89,6.65 -187.83,-70.01 52,85.76 193.56,78.61 193.56,78.61 300.02,-10.9 631.54,-256.15 631.54,-256.15 19.07,-16.14 13.42,-34.86 11.78,-38.28 z"
       id="path81" /></g></g>





</svg>
